,
Brought to you by  http://www.scenetime.com/signup.php
 
 Hottest scene tracker on the net !!!   
 
No fake torrents from scenebalance 
shame on those who comment fake before downloading my torrents

    seed back for speed


 



...................................NFO:.................................................General 
Complete name : Dahmer Vs Gacy 2011 DVDRip Xvid AC3-Freebee.avi 
Format : AVI 
Format/Info : Audio Video Interleave 
File size : 1.40 GiB 
Duration : 1h 30mn 
Overall bit rate : 2 209 Kbps 

Video 
ID : 0 
Format : MPEG-4 Visual 
Format profile : Advanced Simple@L5 
Format settings, BVOP : 2 
Format settings, QPel : No 
Format settings, GMC : No warppoints 
Format settings, Matrix : Default (H.263) 
Codec ID : XVID 
Codec ID/Hint : XviD 
Duration : 1h 30mn 
Bit rate : 1 751 Kbps 
Width : 720 pixels 
Height : 400 pixels 
Display aspect ratio : 16:9 
Frame rate : 23.976 fps 
Color space : YUV 
Chroma subsampling : 4:2:0 
Bit depth : 8 bits 
Scan type : Progressive 
Compression mode : Lossy 
Bits/(Pixel*Frame) : 0.254 
Stream size : 1.11 GiB (79%) 
Writing library : XviD 63 

Audio 
ID : 1 
Format : AC-3 
Format/Info : Audio Coding 3 
Mode extension : CM (complete main) 
Codec ID : 2000 
Duration : 1h 30mn 
Bit rate mode : Constant 
Bit rate : 448 Kbps 
Channel(s) : 6 channels 
Channel positions : Front: L C R, Side: L R, LFE 
Sampling rate : 48.0 KHz 
Bit depth : 16 bits 
Compression mode : Lossy 
Stream size : 291 MiB (20%) 
Alignment : Split accross interleaves 
Interleave, duration : 42 ms (1.00 video frame) 
Interleave, preload duration : 500 ms 


   
              Language.............: English
              Subtitle.............: None
              Imdb-Rating..........: None
              Imdb.................: http://www.imdb.com/title/tt1335986/
              Video-Source.........: My Own
              Audio-Source.........: My Own
              Encoder..............: Freebee269
              Plot.................: A secret government lab run by Dr.
 Hess (Art LaFleur) has been trying to create the ultimate killer using
 the DNA of infamous killers Jeffrey Dahmer (Ford Austin) and John Wayne
 Gacy (Randal Malone), but there's one big problem: they've escaped!
 Bloody mayhem stretches across the United States as they go on the
 ultimate killing spree. Trying to stop the maniacal madness is Ringo
 (Ford Austin), a hick warrior being trained by God (Harland Williams),
 using only a shotgun and a bottle of whiskey. In his road trip to hell,
 he must first fight off his own demons, not to mention an army of
 Japanese ninjas and a Super-serial killer (Ethan Phillips)! It all leads
 up to the ultimate showdown! 
   
                    
                    Sample Included
                    


                    
                    Greets: All P2P Groups!
                    

 
                                          
                           Respects                  
                    
                     SANTi, TOXiCiNK, LKRG 
                    NPW, FLAWL3SS, BDK, CM8
                      IMAGiNE, ViSiON, Rx  
                          Legion, *THC*